<mxfile host="app.diagrams.net" modified="2021-08-12T15:40:03.236Z" agent="5.0 (Macintosh)" etag="dwP0OtnHcTHGvtc3iKoZ" version="14.9.4" type="github">
  <diagram id="ZuEPzK8xECbYefoNrJUE" name="Page-1">
    <mxGraphModel dx="1605" dy="5770" grid="1" gridSize="10" guides="1" tooltips="1" connect="1" arrows="1" fold="1" page="1" pageScale="1" pageWidth="827" pageHeight="1169" math="0" shadow="0">
      <root>
        <mxCell id="0" />
        <mxCell id="1" parent="0" />
        <mxCell id="LA_Ct4nw5FIQalnoRR9--33" style="edgeStyle=orthogonalEdgeStyle;rounded=0;orthogonalLoop=1;jettySize=auto;html=1;exitX=1;exitY=0.5;exitDx=0;exitDy=0;entryX=0;entryY=0.75;entryDx=0;entryDy=0;" parent="1" source="LA_Ct4nw5FIQalnoRR9--2" target="LA_Ct4nw5FIQalnoRR9--30" edge="1">
          <mxGeometry relative="1" as="geometry">
            <Array as="points">
              <mxPoint x="1397.06" y="-3830" />
              <mxPoint x="1397.06" y="-4070" />
            </Array>
          </mxGeometry>
        </mxCell>
        <mxCell id="LA_Ct4nw5FIQalnoRR9--2" value="Mission Analysis" style="rounded=0;whiteSpace=wrap;html=1;" parent="1" vertex="1">
          <mxGeometry x="1147.06" y="-3860" width="120" height="60" as="geometry" />
        </mxCell>
        <mxCell id="LA_Ct4nw5FIQalnoRR9--20" style="edgeStyle=orthogonalEdgeStyle;rounded=0;orthogonalLoop=1;jettySize=auto;html=1;exitX=1;exitY=0.5;exitDx=0;exitDy=0;entryX=0.25;entryY=0;entryDx=0;entryDy=0;" parent="1" source="LA_Ct4nw5FIQalnoRR9--3" target="LA_Ct4nw5FIQalnoRR9--4" edge="1">
          <mxGeometry relative="1" as="geometry" />
        </mxCell>
        <mxCell id="LA_Ct4nw5FIQalnoRR9--3" value="CPACS" style="rounded=0;whiteSpace=wrap;html=1;" parent="1" vertex="1">
          <mxGeometry x="107.06" y="-4570" width="120" height="60" as="geometry" />
        </mxCell>
        <mxCell id="LA_Ct4nw5FIQalnoRR9--21" style="edgeStyle=orthogonalEdgeStyle;rounded=0;orthogonalLoop=1;jettySize=auto;html=1;entryX=0.25;entryY=0;entryDx=0;entryDy=0;" parent="1" target="LA_Ct4nw5FIQalnoRR9--9" edge="1">
          <mxGeometry relative="1" as="geometry">
            <mxPoint x="357.06" y="-4440" as="sourcePoint" />
          </mxGeometry>
        </mxCell>
        <mxCell id="LA_Ct4nw5FIQalnoRR9--4" value="Geometry (CAD)" style="rounded=0;whiteSpace=wrap;html=1;" parent="1" vertex="1">
          <mxGeometry x="237.06" y="-4480" width="120" height="60" as="geometry" />
        </mxCell>
        <mxCell id="LA_Ct4nw5FIQalnoRR9--26" style="edgeStyle=orthogonalEdgeStyle;rounded=0;orthogonalLoop=1;jettySize=auto;html=1;exitX=1;exitY=0.5;exitDx=0;exitDy=0;entryX=0.25;entryY=0;entryDx=0;entryDy=0;" parent="1" source="LA_Ct4nw5FIQalnoRR9--5" target="LA_Ct4nw5FIQalnoRR9--6" edge="1">
          <mxGeometry relative="1" as="geometry" />
        </mxCell>
        <mxCell id="LA_Ct4nw5FIQalnoRR9--5" value="Loads analysis" style="rounded=0;whiteSpace=wrap;html=1;" parent="1" vertex="1">
          <mxGeometry x="887.06" y="-4030" width="120" height="60" as="geometry" />
        </mxCell>
        <mxCell id="LA_Ct4nw5FIQalnoRR9--15" style="edgeStyle=orthogonalEdgeStyle;rounded=0;orthogonalLoop=1;jettySize=auto;html=1;exitX=0.5;exitY=0;exitDx=0;exitDy=0;entryX=0.5;entryY=1;entryDx=0;entryDy=0;" parent="1" source="LA_Ct4nw5FIQalnoRR9--6" target="LA_Ct4nw5FIQalnoRR9--12" edge="1">
          <mxGeometry relative="1" as="geometry" />
        </mxCell>
        <mxCell id="LA_Ct4nw5FIQalnoRR9--27" style="edgeStyle=orthogonalEdgeStyle;rounded=0;orthogonalLoop=1;jettySize=auto;html=1;exitX=1;exitY=0.5;exitDx=0;exitDy=0;entryX=0.25;entryY=0;entryDx=0;entryDy=0;" parent="1" source="LA_Ct4nw5FIQalnoRR9--6" target="LA_Ct4nw5FIQalnoRR9--2" edge="1">
          <mxGeometry relative="1" as="geometry" />
        </mxCell>
        <mxCell id="LA_Ct4nw5FIQalnoRR9--6" value="Ctrl Design FCS HQ assessment Flutter" style="rounded=0;whiteSpace=wrap;html=1;" parent="1" vertex="1">
          <mxGeometry x="1017.06" y="-3940" width="120" height="60" as="geometry" />
        </mxCell>
        <mxCell id="LA_Ct4nw5FIQalnoRR9--24" style="edgeStyle=orthogonalEdgeStyle;rounded=0;orthogonalLoop=1;jettySize=auto;html=1;exitX=1;exitY=0.5;exitDx=0;exitDy=0;entryX=0.25;entryY=0;entryDx=0;entryDy=0;" parent="1" source="LA_Ct4nw5FIQalnoRR9--7" target="LA_Ct4nw5FIQalnoRR9--10" edge="1">
          <mxGeometry relative="1" as="geometry" />
        </mxCell>
        <mxCell id="LA_Ct4nw5FIQalnoRR9--7" value="Aero model" style="rounded=0;whiteSpace=wrap;html=1;" parent="1" vertex="1">
          <mxGeometry x="627.06" y="-4210" width="120" height="60" as="geometry" />
        </mxCell>
        <mxCell id="LA_Ct4nw5FIQalnoRR9--8" value="Mass Model payload, fuel, add. system mass&amp;nbsp;" style="rounded=0;whiteSpace=wrap;html=1;" parent="1" vertex="1">
          <mxGeometry x="497.05999999999995" y="-4300" width="120" height="60" as="geometry" />
        </mxCell>
        <mxCell id="LA_Ct4nw5FIQalnoRR9--22" style="edgeStyle=orthogonalEdgeStyle;rounded=0;orthogonalLoop=1;jettySize=auto;html=1;exitX=1;exitY=0.5;exitDx=0;exitDy=0;entryX=0.25;entryY=0;entryDx=0;entryDy=0;" parent="1" source="LA_Ct4nw5FIQalnoRR9--9" target="LA_Ct4nw5FIQalnoRR9--8" edge="1">
          <mxGeometry relative="1" as="geometry" />
        </mxCell>
        <mxCell id="LA_Ct4nw5FIQalnoRR9--9" value="FEM (NASTRAN) Structural sizing" style="rounded=0;whiteSpace=wrap;html=1;" parent="1" vertex="1">
          <mxGeometry x="367.06" y="-4390" width="120" height="60" as="geometry" />
        </mxCell>
        <mxCell id="LA_Ct4nw5FIQalnoRR9--25" style="edgeStyle=orthogonalEdgeStyle;rounded=0;orthogonalLoop=1;jettySize=auto;html=1;exitX=1;exitY=0.75;exitDx=0;exitDy=0;entryX=0.25;entryY=0;entryDx=0;entryDy=0;" parent="1" source="LA_Ct4nw5FIQalnoRR9--10" target="LA_Ct4nw5FIQalnoRR9--5" edge="1">
          <mxGeometry relative="1" as="geometry" />
        </mxCell>
        <mxCell id="LA_Ct4nw5FIQalnoRR9--10" value="Model Integr." style="rounded=0;whiteSpace=wrap;html=1;" parent="1" vertex="1">
          <mxGeometry x="757.06" y="-4120" width="120" height="60" as="geometry" />
        </mxCell>
        <mxCell id="xY0VCn1-MneJpHVmnoEf-3" style="edgeStyle=orthogonalEdgeStyle;rounded=0;orthogonalLoop=1;jettySize=auto;html=1;exitX=1;exitY=0.5;exitDx=0;exitDy=0;entryX=0;entryY=0.25;entryDx=0;entryDy=0;" parent="1" source="LA_Ct4nw5FIQalnoRR9--11" target="LA_Ct4nw5FIQalnoRR9--13" edge="1">
          <mxGeometry relative="1" as="geometry" />
        </mxCell>
        <mxCell id="LA_Ct4nw5FIQalnoRR9--11" value="HIL model" style="rounded=0;whiteSpace=wrap;html=1;" parent="1" vertex="1">
          <mxGeometry x="1017.06" y="-4395" width="120" height="60" as="geometry" />
        </mxCell>
        <mxCell id="LA_Ct4nw5FIQalnoRR9--17" style="edgeStyle=orthogonalEdgeStyle;rounded=0;orthogonalLoop=1;jettySize=auto;html=1;exitX=1;exitY=0.5;exitDx=0;exitDy=0;entryX=0;entryY=0.75;entryDx=0;entryDy=0;" parent="1" source="LA_Ct4nw5FIQalnoRR9--12" target="LA_Ct4nw5FIQalnoRR9--13" edge="1">
          <mxGeometry relative="1" as="geometry" />
        </mxCell>
        <mxCell id="LA_Ct4nw5FIQalnoRR9--12" value="FCC" style="rounded=0;whiteSpace=wrap;html=1;" parent="1" vertex="1">
          <mxGeometry x="1017.06" y="-4305" width="120" height="60" as="geometry" />
        </mxCell>
        <mxCell id="LA_Ct4nw5FIQalnoRR9--19" style="edgeStyle=orthogonalEdgeStyle;rounded=0;orthogonalLoop=1;jettySize=auto;html=1;exitX=0.5;exitY=1;exitDx=0;exitDy=0;entryX=0.5;entryY=0;entryDx=0;entryDy=0;" parent="1" source="LA_Ct4nw5FIQalnoRR9--13" target="LA_Ct4nw5FIQalnoRR9--36" edge="1">
          <mxGeometry relative="1" as="geometry" />
        </mxCell>
        <mxCell id="LA_Ct4nw5FIQalnoRR9--29" style="edgeStyle=orthogonalEdgeStyle;rounded=0;orthogonalLoop=1;jettySize=auto;html=1;exitX=0.25;exitY=1;exitDx=0;exitDy=0;entryX=0.75;entryY=0;entryDx=0;entryDy=0;" parent="1" source="LA_Ct4nw5FIQalnoRR9--13" target="LA_Ct4nw5FIQalnoRR9--6" edge="1">
          <mxGeometry relative="1" as="geometry">
            <Array as="points">
              <mxPoint x="1267.06" y="-4260" />
              <mxPoint x="1177.06" y="-4260" />
              <mxPoint x="1177.06" y="-4000" />
              <mxPoint x="1107.06" y="-4000" />
            </Array>
          </mxGeometry>
        </mxCell>
        <mxCell id="LA_Ct4nw5FIQalnoRR9--31" style="edgeStyle=orthogonalEdgeStyle;rounded=0;orthogonalLoop=1;jettySize=auto;html=1;exitX=1;exitY=0.5;exitDx=0;exitDy=0;entryX=0;entryY=0.25;entryDx=0;entryDy=0;" parent="1" source="LA_Ct4nw5FIQalnoRR9--13" target="LA_Ct4nw5FIQalnoRR9--30" edge="1">
          <mxGeometry relative="1" as="geometry">
            <Array as="points">
              <mxPoint x="1397.06" y="-4315" />
              <mxPoint x="1397.06" y="-4100" />
            </Array>
          </mxGeometry>
        </mxCell>
        <mxCell id="LA_Ct4nw5FIQalnoRR9--13" value="HIL test" style="rounded=0;whiteSpace=wrap;html=1;" parent="1" vertex="1">
          <mxGeometry x="1237.06" y="-4345" width="120" height="60" as="geometry" />
        </mxCell>
        <mxCell id="LA_Ct4nw5FIQalnoRR9--28" style="edgeStyle=orthogonalEdgeStyle;rounded=0;orthogonalLoop=1;jettySize=auto;html=1;exitX=0.5;exitY=0;exitDx=0;exitDy=0;entryX=0.5;entryY=0;entryDx=0;entryDy=0;" parent="1" source="LA_Ct4nw5FIQalnoRR9--30" target="LA_Ct4nw5FIQalnoRR9--3" edge="1">
          <mxGeometry relative="1" as="geometry">
            <Array as="points">
              <mxPoint x="1507.06" y="-4590" />
              <mxPoint x="167.06" y="-4590" />
            </Array>
          </mxGeometry>
        </mxCell>
        <mxCell id="LA_Ct4nw5FIQalnoRR9--32" style="edgeStyle=orthogonalEdgeStyle;rounded=0;orthogonalLoop=1;jettySize=auto;html=1;exitX=1;exitY=0.5;exitDx=0;exitDy=0;entryX=0;entryY=0.5;entryDx=0;entryDy=0;" parent="1" source="LA_Ct4nw5FIQalnoRR9--18" target="LA_Ct4nw5FIQalnoRR9--30" edge="1">
          <mxGeometry relative="1" as="geometry" />
        </mxCell>
        <mxCell id="LA_Ct4nw5FIQalnoRR9--18" value="Flight test" style="rounded=0;whiteSpace=wrap;html=1;" parent="1" vertex="1">
          <mxGeometry x="1237.06" y="-4115" width="120" height="60" as="geometry" />
        </mxCell>
        <mxCell id="LA_Ct4nw5FIQalnoRR9--30" value="Lessons learnt" style="rounded=0;whiteSpace=wrap;html=1;" parent="1" vertex="1">
          <mxGeometry x="1447.06" y="-4115" width="120" height="60" as="geometry" />
        </mxCell>
        <mxCell id="LA_Ct4nw5FIQalnoRR9--40" style="edgeStyle=orthogonalEdgeStyle;rounded=0;orthogonalLoop=1;jettySize=auto;html=1;exitX=0.5;exitY=1;exitDx=0;exitDy=0;entryX=0.5;entryY=0;entryDx=0;entryDy=0;" parent="1" source="LA_Ct4nw5FIQalnoRR9--36" target="LA_Ct4nw5FIQalnoRR9--18" edge="1">
          <mxGeometry relative="1" as="geometry" />
        </mxCell>
        <mxCell id="LA_Ct4nw5FIQalnoRR9--36" value="Pilot training" style="rounded=0;whiteSpace=wrap;html=1;" parent="1" vertex="1">
          <mxGeometry x="1237.06" y="-4195" width="120" height="60" as="geometry" />
        </mxCell>
        <mxCell id="LA_Ct4nw5FIQalnoRR9--41" style="edgeStyle=orthogonalEdgeStyle;rounded=0;orthogonalLoop=1;jettySize=auto;html=1;exitX=0.5;exitY=0;exitDx=0;exitDy=0;entryX=0.5;entryY=1;entryDx=0;entryDy=0;" parent="1" source="LA_Ct4nw5FIQalnoRR9--38" target="LA_Ct4nw5FIQalnoRR9--18" edge="1">
          <mxGeometry relative="1" as="geometry" />
        </mxCell>
        <mxCell id="LA_Ct4nw5FIQalnoRR9--38" value="Ground test, GVT" style="rounded=0;whiteSpace=wrap;html=1;" parent="1" vertex="1">
          <mxGeometry x="1237.06" y="-4035" width="120" height="60" as="geometry" />
        </mxCell>
        <mxCell id="LA_Ct4nw5FIQalnoRR9--42" value="&lt;blockquote&gt;&lt;blockquote&gt;&lt;blockquote&gt;&lt;blockquote&gt;&lt;b&gt;&lt;font style=&quot;font-size: 24px&quot;&gt;Flight tests&lt;/font&gt;&lt;/b&gt;&lt;br&gt;&lt;/blockquote&gt;&lt;/blockquote&gt;&lt;/blockquote&gt;&lt;/blockquote&gt;" style="rounded=0;html=1;rotation=0;opacity=30;fillColor=#d5e8d4;strokeColor=#82b366;labelPosition=center;verticalLabelPosition=bottom;align=center;verticalAlign=top;spacingTop=-55;" parent="1" vertex="1">
          <mxGeometry x="1227.06" y="-4205" width="150" height="275" as="geometry" />
        </mxCell>
        <mxCell id="xY0VCn1-MneJpHVmnoEf-2" value="&lt;b&gt;&lt;font style=&quot;font-size: 24px&quot;&gt;HIL tests&lt;/font&gt;&lt;/b&gt;" style="rounded=0;whiteSpace=wrap;html=1;rotation=0;opacity=30;fillColor=#f8cecc;strokeColor=#b85450;labelPosition=right;verticalLabelPosition=middle;align=left;verticalAlign=top;spacingLeft=-111;spacingBottom=0;spacingTop=5;" parent="1" vertex="1">
          <mxGeometry x="987.06" y="-4410" width="380" height="180" as="geometry" />
        </mxCell>
        <mxCell id="WIJgCpqruUBTY1LYD2OE-3" style="edgeStyle=orthogonalEdgeStyle;rounded=0;orthogonalLoop=1;jettySize=auto;html=1;entryX=0.5;entryY=0;entryDx=0;entryDy=0;exitX=1;exitY=0.5;exitDx=0;exitDy=0;" edge="1" parent="1" source="LA_Ct4nw5FIQalnoRR9--4" target="LA_Ct4nw5FIQalnoRR9--8">
          <mxGeometry relative="1" as="geometry">
            <mxPoint x="367.06" y="-4470" as="sourcePoint" />
            <mxPoint x="417.05999999999995" y="-4410" as="targetPoint" />
          </mxGeometry>
        </mxCell>
        <mxCell id="WIJgCpqruUBTY1LYD2OE-4" style="edgeStyle=orthogonalEdgeStyle;rounded=0;orthogonalLoop=1;jettySize=auto;html=1;entryX=0.5;entryY=0;entryDx=0;entryDy=0;" edge="1" parent="1" target="LA_Ct4nw5FIQalnoRR9--7">
          <mxGeometry relative="1" as="geometry">
            <mxPoint x="357.06" y="-4460" as="sourcePoint" />
            <mxPoint x="387.06" y="-4400" as="targetPoint" />
          </mxGeometry>
        </mxCell>
        <mxCell id="WIJgCpqruUBTY1LYD2OE-5" style="edgeStyle=orthogonalEdgeStyle;rounded=0;orthogonalLoop=1;jettySize=auto;html=1;exitX=1;exitY=0.5;exitDx=0;exitDy=0;" edge="1" parent="1">
          <mxGeometry relative="1" as="geometry">
            <mxPoint x="487.05999999999995" y="-4345" as="sourcePoint" />
            <mxPoint x="827.06" y="-4120" as="targetPoint" />
            <Array as="points">
              <mxPoint x="827.06" y="-4345" />
              <mxPoint x="827.06" y="-4120" />
            </Array>
          </mxGeometry>
        </mxCell>
        <mxCell id="WIJgCpqruUBTY1LYD2OE-6" style="edgeStyle=orthogonalEdgeStyle;rounded=0;orthogonalLoop=1;jettySize=auto;html=1;exitX=1;exitY=0.5;exitDx=0;exitDy=0;" edge="1" parent="1">
          <mxGeometry relative="1" as="geometry">
            <mxPoint x="617.06" y="-4268" as="sourcePoint" />
            <mxPoint x="806.06" y="-4120" as="targetPoint" />
          </mxGeometry>
        </mxCell>
        <mxCell id="WIJgCpqruUBTY1LYD2OE-7" style="edgeStyle=orthogonalEdgeStyle;rounded=0;orthogonalLoop=1;jettySize=auto;html=1;exitX=0.75;exitY=0;exitDx=0;exitDy=0;entryX=0;entryY=0.5;entryDx=0;entryDy=0;" edge="1" parent="1" source="LA_Ct4nw5FIQalnoRR9--10" target="xY0VCn1-MneJpHVmnoEf-2">
          <mxGeometry relative="1" as="geometry">
            <mxPoint x="907.06" y="-4210" as="sourcePoint" />
            <mxPoint x="947.06" y="-4150" as="targetPoint" />
          </mxGeometry>
        </mxCell>
        <mxCell id="WIJgCpqruUBTY1LYD2OE-8" style="edgeStyle=orthogonalEdgeStyle;rounded=0;orthogonalLoop=1;jettySize=auto;html=1;exitX=1;exitY=0.5;exitDx=0;exitDy=0;entryX=0.4;entryY=-0.017;entryDx=0;entryDy=0;entryPerimeter=0;" edge="1" parent="1" source="LA_Ct4nw5FIQalnoRR9--10" target="LA_Ct4nw5FIQalnoRR9--6">
          <mxGeometry relative="1" as="geometry">
            <mxPoint x="917.06" y="-4095" as="sourcePoint" />
            <mxPoint x="957.06" y="-4035" as="targetPoint" />
          </mxGeometry>
        </mxCell>
        <mxCell id="WIJgCpqruUBTY1LYD2OE-10" style="edgeStyle=orthogonalEdgeStyle;rounded=0;orthogonalLoop=1;jettySize=auto;html=1;exitX=1;exitY=0.5;exitDx=0;exitDy=0;entryX=0.5;entryY=0;entryDx=0;entryDy=0;" edge="1" parent="1" target="LA_Ct4nw5FIQalnoRR9--2">
          <mxGeometry relative="1" as="geometry">
            <mxPoint x="877.06" y="-4110" as="sourcePoint" />
            <mxPoint x="917.06" y="-4050" as="targetPoint" />
          </mxGeometry>
        </mxCell>
        <mxCell id="WIJgCpqruUBTY1LYD2OE-11" style="edgeStyle=orthogonalEdgeStyle;rounded=0;orthogonalLoop=1;jettySize=auto;html=1;exitX=0;exitY=0.5;exitDx=0;exitDy=0;entryX=0.5;entryY=1;entryDx=0;entryDy=0;" edge="1" parent="1" source="LA_Ct4nw5FIQalnoRR9--5" target="LA_Ct4nw5FIQalnoRR9--9">
          <mxGeometry relative="1" as="geometry">
            <mxPoint x="757.06" y="-4010" as="sourcePoint" />
            <mxPoint x="797.06" y="-3950" as="targetPoint" />
          </mxGeometry>
        </mxCell>
        <mxCell id="WIJgCpqruUBTY1LYD2OE-12" style="edgeStyle=orthogonalEdgeStyle;rounded=0;orthogonalLoop=1;jettySize=auto;html=1;exitX=0;exitY=0.25;exitDx=0;exitDy=0;entryX=0.5;entryY=1;entryDx=0;entryDy=0;" edge="1" parent="1" source="LA_Ct4nw5FIQalnoRR9--6" target="LA_Ct4nw5FIQalnoRR9--10">
          <mxGeometry relative="1" as="geometry">
            <mxPoint x="867.06" y="-3920" as="sourcePoint" />
            <mxPoint x="907.06" y="-3860" as="targetPoint" />
          </mxGeometry>
        </mxCell>
        <mxCell id="WIJgCpqruUBTY1LYD2OE-13" style="edgeStyle=orthogonalEdgeStyle;rounded=0;orthogonalLoop=1;jettySize=auto;html=1;exitX=0.008;exitY=0.65;exitDx=0;exitDy=0;entryX=0.5;entryY=1;entryDx=0;entryDy=0;exitPerimeter=0;" edge="1" parent="1" source="LA_Ct4nw5FIQalnoRR9--6" target="LA_Ct4nw5FIQalnoRR9--8">
          <mxGeometry relative="1" as="geometry">
            <mxPoint x="857.06" y="-4070" as="sourcePoint" />
            <mxPoint x="897.06" y="-4010" as="targetPoint" />
          </mxGeometry>
        </mxCell>
        <mxCell id="LA_Ct4nw5FIQalnoRR9--34" value="&lt;font style=&quot;font-size: 36px&quot;&gt;&lt;b&gt;MDO toolchain&lt;/b&gt;&lt;/font&gt;" style="rounded=0;whiteSpace=wrap;html=1;rotation=35;opacity=30;fillColor=#dae8fc;strokeColor=#6c8ebf;spacingTop=130;" parent="1" vertex="1">
          <mxGeometry x="-50" y="-4287.73" width="1420" height="244.96" as="geometry" />
        </mxCell>
      </root>
    </mxGraphModel>
  </diagram>
</mxfile>
